<?xml version="1.0" encoding="UTF-8"?>
<svg width="24px" height="24px" viewBox="0 0 24 24" version="1.1" xmlns="http://www.w3.org/2000/svg" xmlns:xlink="http://www.w3.org/1999/xlink">
  <symbol id="src-svg-sprite-down-circle" viewBox="0 0 24 24">
    <circle fillOpacity="0.6" fill="#95A1AF" fillRule="nonzero" cx="12" cy="12" r="12"></circle>
    <path d="M12.8032921,7.90047004 L16.6738459,12.409482 C17.0335726,12.8285466 16.9854697,13.4598817 16.5664051,13.8196084 C16.3850853,13.9752541 16.1540235,14.0608248 15.9150623,14.0608248 L8.17395481,14.0608248 C7.62167006,14.0608248 7.17395481,13.6131096 7.17395481,13.0608248 C7.17395481,12.8218636 7.25952556,12.5908019 7.41517124,12.409482 L11.285725,7.90047004 C11.6454517,7.48140544 12.2767868,7.43330258 12.6958514,7.79302929 C12.7343379,7.82606628 12.7702551,7.86198352 12.8032921,7.90047004 Z" fill="#FFFFFF"></path>
  </symbol>
  <symbol id="src-svg-sprite-down-" viewBox="0 0 12 12">
    <path d="M6.7525696,3.32327895 L11.7948799,9.08591924 C12.1585619,9.50155588 12.1164444,10.1333185 11.7008078,10.4970005 C11.5185163,10.6565056 11.2845263,10.7444239 11.0423032,10.7444239 L0.957682648,10.7444239 C0.405397898,10.7444239 -0.042317352,10.2967086 -0.042317352,9.74442385 C-0.042317352,9.50220071 0.0456008956,9.26821074 0.205105953,9.08591924 L5.24741621,3.32327895 C5.61109827,2.90764232 6.24286088,2.86552481 6.65849752,3.22920686 C6.69190829,3.25844129 6.72333518,3.28986818 6.7525696,3.32327895 Z" transform="translate(6.000000, 6.872212) scale(1, -1) translate(-6.000000, -6.872212) "></path>
  </symbol>
</svg>